<svg xmlns="http://www.w3.org/2000/svg" width="764" height="380" viewBox="0 0 764 380" fill="none"><g clip-path="url(#clip0_2346_106)"><g opacity="0.05"><path fill-rule="evenodd" clip-rule="evenodd" d="M0 389C0 174.155 171.034 0 382 0C592.976 0 764 174.155 764 389C764 459.46 745.608 525.557 713.433 582.556L511.876 434.196H584.776L698.141 517.665C713.763 477.881 722.375 434.465 722.375 389C722.375 197.576 569.977 42.4019 382 42.4019C194.023 42.4019 41.6379 197.576 41.6379 389C41.6379 580.415 194.023 735.598 382 735.598C479.151 735.598 566.797 694.15 628.814 627.665L662.703 652.852C592.899 729.815 492.978 778 382 778C171.034 778 0 603.829 0 389Z" fill="#BDA76E"></path></g></g><defs><clipPath id="clip0_2346_106"><rect width="380" height="764" fill="white" transform="matrix(0 -1 1 0 0 380)"></rect></clipPath></defs></svg>